<mxfile host="app.diagrams.net" modified="2023-12-31T11:16:23.509Z" agent="Mozilla/5.0 (Windows NT 10.0; Win64; x64) AppleWebKit/537.36 (KHTML, like Gecko) Chrome/120.0.0.0 Safari/537.36" version="22.1.16" etag="8Kir1a4O9EIREfx_tDdH" type="github">
  <diagram name="Page-1" id="J2PXmWhtZMdXVpMkX9J5">
    <mxGraphModel>
      <root>
        <mxCell id="0" />
        <mxCell id="1" parent="0" />
      </root>
    </mxGraphModel>
  </diagram>
</mxfile>
